<?xml version="1.0" encoding="UTF-8" standalone="no"?>
<!-- Created with Inkscape (http://www.inkscape.org/) -->

<svg
   version="1.1"
   id="svg1"
   width="40"
   height="40"
   viewBox="0 0 40 40"
   sodipodi:docname="logo.svg"
   inkscape:version="1.3.2 (091e20e, 2023-11-25, custom)"
   xmlns:inkscape="http://www.inkscape.org/namespaces/inkscape"
   xmlns:sodipodi="http://sodipodi.sourceforge.net/DTD/sodipodi-0.dtd"
   xmlns="http://www.w3.org/2000/svg"
   xmlns:svg="http://www.w3.org/2000/svg">
  <defs
     id="defs1" />
  <sodipodi:namedview
     id="namedview1"
     pagecolor="#ffffff"
     bordercolor="#000000"
     borderopacity="0.25"
     inkscape:showpageshadow="2"
     inkscape:pageopacity="0.0"
     inkscape:pagecheckerboard="0"
     inkscape:deskcolor="#d1d1d1"
     showgrid="true"
     inkscape:zoom="12.975"
     inkscape:cx="21.040462"
     inkscape:cy="27.707129"
     inkscape:window-width="1366"
     inkscape:window-height="715"
     inkscape:window-x="-8"
     inkscape:window-y="-8"
     inkscape:window-maximized="1"
     inkscape:current-layer="g1">
    <inkscape:grid
       id="grid1"
       units="px"
       originx="0"
       originy="0"
       spacingx="1"
       spacingy="1"
       empcolor="#0099e5"
       empopacity="0.30196078"
       color="#0099e5"
       opacity="0.14901961"
       empspacing="5"
       dotted="false"
       gridanglex="30"
       gridanglez="30"
       visible="true" />
  </sodipodi:namedview>
  <g
     inkscape:groupmode="layer"
     id="layer4"
     inkscape:label="Logo" />
  <g
     inkscape:groupmode="layer"
     inkscape:label="Folding"
     id="g1">
    <path
       style="fill:#bebebe;stroke-width:0.124212"
       d="M 9.1399654,34.936195 C 8.1520752,34.713475 7.4592889,34.210303 7.0377084,33.409303 6.8408694,33.035323 6.7921546,32.543755 6.7319911,30.324427 6.6475986,27.211243 6.5650726,26.935351 5.5888525,26.502763 l -0.5910228,-0.2619 v -0.658224 c 0,-0.65526 0.00228,-0.65922 0.5313209,-0.882468 0.3611425,-0.152424 0.6273753,-0.38304 0.8312109,-0.72 0.2816912,-0.46566 0.3041182,-0.655956 0.3695725,-3.135744 0.066779,-2.530104 0.083037,-2.662248 0.3901858,-3.174396 0.4344759,-0.72444 1.2416618,-1.275324 2.1172554,-1.44498 1.1701168,-0.226728 1.2824338,-0.174768 1.3269408,0.61398 l 0.03827,0.674604 -0.6099376,0.285396 c -1.0945051,0.512124 -1.1274437,0.606012 -1.2081655,3.443784 -0.080731,2.83794 -0.1856766,3.225432 -1.0635317,3.92676 l -0.5253036,0.419676 0.4798788,0.369192 c 0.9412939,0.724188 1.0305438,1.040784 1.112427,3.945984 0.044441,1.577028 0.1294728,2.673828 0.2187162,2.821344 0.232206,0.383844 0.5849712,0.629856 1.0697904,0.746064 l 0.44999,0.10788 v 0.71238 0.712368 l -0.44999,0.02064 c -0.2474891,0.0108 -0.6688229,-0.02868 -0.9362954,-0.08892 z m 20.1771826,-0.04644 c -0.105833,-0.2574 -0.109417,-0.944544 -0.0058,-1.195512 0.04282,-0.1044 0.190425,-0.189816 0.327798,-0.189816 0.427461,0 0.994192,-0.346992 1.228271,-0.752028 0.185558,-0.321084 0.235805,-0.822432 0.291453,-2.907972 0.06199,-2.323284 0.09064,-2.564136 0.365638,-3.085476 0.17519,-0.33198 0.480432,-0.670476 0.739265,-0.81978 0.242479,-0.139872 0.440869,-0.283608 0.440869,-0.319404 0,-0.03576 -0.259297,-0.278112 -0.576212,-0.538476 -0.830682,-0.682476 -0.966608,-1.207656 -0.966608,-3.734724 0,-1.21218 -0.06118,-2.224656 -0.151207,-2.505324 -0.166367,-0.518304 -0.707747,-1.013652 -1.240808,-1.135332 -0.444426,-0.1014 -0.532567,-0.237396 -0.532567,-0.821484 0,-0.788952 0.10137,-0.853032 1.096872,-0.693864 1.25603,0.200808 1.957378,0.642648 2.434809,1.533864 0.384654,0.718044 0.385875,0.726996 0.449988,3.3 0.07471,3.004236 0.145616,3.223392 1.192188,3.692316 0.603764,0.270528 0.607759,0.276228 0.607759,0.867684 0,0.591456 -0.0037,0.597156 -0.607759,0.867684 -1.048267,0.469692 -1.116077,0.68166 -1.200415,3.752316 -0.06674,2.431644 -0.09568,2.685048 -0.368097,3.210744 -0.499759,0.96498 -1.364241,1.476972 -2.716558,1.6089 -0.608198,0.05928 -0.73769,0.0378 -0.808459,-0.134316 z m -15.911254,-3.33924 c -0.272896,-0.171108 -0.504254,-0.45438 -0.616429,-0.754764 -0.158869,-0.425412 -0.154924,-0.529332 0.03401,-0.901356 0.447532,-0.880272 1.654834,-1.11336 2.438834,-0.470868 0.242705,0.1989 0.473417,0.52344 0.517132,0.727464 0.17114,0.798672 -0.631731,1.671972 -1.53806,1.672992 -0.219365,2.4e-4 -0.595425,-0.12282 -0.835701,-0.273468 z m 5.656989,0 c -0.272896,-0.171108 -0.504257,-0.45438 -0.616431,-0.754764 -0.158867,-0.425412 -0.154921,-0.529332 0.03401,-0.901356 0.447536,-0.880272 1.654832,-1.11336 2.438841,-0.470868 0.242703,0.1989 0.47341,0.52344 0.517124,0.727464 0.171143,0.798672 -0.631725,1.671972 -1.538062,1.672992 -0.219354,2.4e-4 -0.59542,-0.12282 -0.83569,-0.273468 z m 5.656987,0 c -0.272895,-0.171108 -0.504251,-0.45438 -0.616425,-0.754764 -0.158877,-0.425412 -0.154928,-0.529332 0.03401,-0.901356 0.447541,-0.880272 1.654839,-1.11336 2.438839,-0.470868 0.242706,0.1989 0.473413,0.52344 0.517133,0.727464 0.171135,0.798672 -0.631733,1.671972 -1.538068,1.672992 -0.219355,2.4e-4 -0.59542,-0.12282 -0.835694,-0.273468 z"
       id="path1-8" />
  </g>
  <g
     inkscape:groupmode="layer"
     id="layer5"
     inkscape:label="LightBulb">
    <path
       style="fill:#fec311;stroke-width:0.120001"
       d="m 18.246514,25.358871 c -0.11556,-0.127719 -0.434448,-0.337792 -0.7086,-0.466829 -0.965809,-0.454595 -0.970933,-0.470003 -1.038445,-3.12309 -0.05869,-2.306531 -0.0672,-2.370113 -0.390675,-2.920384 C 15.926925,18.539183 15.53461,18.086511 15.236986,17.84263 13.484577,16.406663 12.404088,13.811715 12.584002,11.47111 12.72381,9.6522424 13.482897,8.0975452 14.879469,6.7697308 16.269597,5.4480424 17.866126,4.835254 19.91947,4.835254 c 2.131908,0 3.724776,0.6546792 5.232384,2.1505512 1.441656,1.4304168 2.081508,3.0103788 2.06754,5.1052808 -0.0144,2.158974 -0.680472,3.672891 -2.414664,5.488194 -0.6138,0.642508 -1.194588,1.356274 -1.290624,1.586147 -0.13056,0.312466 -0.174744,0.956503 -0.17508,2.551805 -4.8e-4,2.458832 -0.075,2.697032 -0.975828,3.121016 -0.288048,0.135573 -0.626592,0.360422 -0.752328,0.499667 -0.208776,0.231214 -0.355464,0.253171 -1.6914,0.253171 -1.294056,0 -1.487052,-0.02678 -1.672956,-0.232215 z m 2.381628,-1.370518 c 0.204228,-0.155504 0.492828,-0.321143 0.641328,-0.368087 0.354672,-0.112116 0.34254,-0.35405 -0.03,-0.598144 -0.165,-0.108108 -0.3,-0.27766 -0.3,-0.376772 0,-0.09911 0.135,-0.231531 0.3,-0.294264 0.165,-0.06274 0.3,-0.197732 0.3,-0.3 0,-0.102264 -0.135,-0.237267 -0.3,-0.3 -0.176064,-0.06694 -0.3,-0.209133 -0.3,-0.344191 0,-0.294938 -0.223308,-0.375809 -1.0377,-0.375809 -0.688824,0 -1.1223,0.150522 -1.1223,0.389715 0,0.0777 -0.14508,0.256951 -0.322392,0.398339 l -0.322392,0.257067 0.322392,0.211241 c 0.405996,0.266023 0.411348,0.577752 0.0144,0.837865 -0.248256,0.162665 -0.280344,0.235201 -0.165312,0.373801 0.07848,0.09458 0.222816,0.171972 0.320712,0.171972 0.09792,0 0.338424,0.135 0.534516,0.3 0.451464,0.379884 0.982332,0.386134 1.466784,0.01727 z M 20.27947,18.451086 v -1.2 h -0.36 -0.36 l -0.03492,1.070504 c -0.04236,1.297226 -0.0048,1.416939 0.424284,1.367533 l 0.330636,-0.03804 z m 1.53966,0.291863 c 0.158736,-0.446954 0.492792,-0.900179 1.260348,-1.71 1.70052,-1.794146 2.2803,-2.907509 2.388504,-4.586682 C 25.581022,10.691279 25.02715,9.1755928 23.822866,7.944856 22.67779,6.77461 20.809054,6.0384148 19.446238,6.2206648 17.39797,6.4945804 15.752795,7.7103532 14.831269,9.6310864 c -0.425131,0.8860976 -0.4318,0.9233096 -0.4318,2.4090466 v 1.509047 l 0.513504,1.036296 c 0.400603,0.80845 0.764409,1.301369 1.654677,2.241916 0.685048,0.723738 1.23484,1.424142 1.375528,1.752339 0.128892,0.300696 0.28878,0.513076 0.35532,0.471955 0.06648,-0.04112 0.120972,-0.443366 0.120972,-0.893881 0,-0.734472 -0.03012,-0.838813 -0.290904,-1.009721 -0.396828,-0.260017 -0.491652,-0.623654 -0.256284,-0.982873 0.156792,-0.239294 0.292356,-0.294125 0.727188,-0.294125 0.437676,0 0.57006,0.05432 0.73104,0.3 0.129648,0.197874 0.307296,0.3 0.521844,0.3 0.191808,0 0.440928,-0.123097 0.607116,-0.3 0.331464,-0.352833 1.070016,-0.412839 1.371432,-0.111432 0.29448,0.294483 0.238056,0.831399 -0.11148,1.060394 -0.280944,0.184084 -0.3,0.26117 -0.3,1.213801 0,0.559478 0.04128,1.017234 0.0918,1.017234 0.05052,0 0.189024,-0.273661 0.307824,-0.608137 z"
       id="path1" />
  </g>
</svg>
